# xmcd
# Track frame offsets:
# 150
# 13336
# 25074
# 38240
# 50987
# 63568
# 76865
# 89490
# 103189
# 116325
# 130825
# 144520
# 157734
# 171688
# 185542
# 198627
# 209375
# 222957
# 234522
# 247016
# 259834
# 272683
#
# Disc length: 3815 seconds
# Revision: 0
# Processed by: cddbd v1.5.2PL0 Copyright (c) Steve Scherf et al.
# Submitted via: VisiTrax 2.11.3.279 - For more info visit www.synapsa.com
#
DISCID=4b0ee516
DTITLE=Slim Dusty - The Dusty Trail Rider
DYEAR=2005
DGENRE=Australian Country
TTITLE0=Been A Fool Too Long
TTITLE1=My Happy Valley Home
TTITLE2=A Song Of Granny
TTITLE3=Give Me One More Chance
TTITLE4=You Made Me Live Love And Die
TTITLE5=Heading For That Brumby Trail
TTITLE6=How Can I Smile When I'm Lonely
TTITLE7=I Bet You Feel The Same
TTITLE8=Lover's Lament
TTITLE9=When The Rain Tumbles Down In July
TTITLE10=Modern Yodeling Song
TTITLE11=My Aussie Home
TTITLE12=My Faded Dream
TTITLE13=Sun Valley Rose
TTITLE14=Happy Drover
TTITLE15=My Moonlight Trail To You
TTITLE16=Stay Away From Me
TTITLE17=My Pony Whipstick
TTITLE18=You Don't Know How Sad I Feel
TTITLE19=Sat'day In The Saddle
TTITLE20=Soldier's Wife
TTITLE21=Springtime On The Range
EXTD=BACM CD D 060
EXTT0=
EXTT1=
EXTT2=
EXTT3=
EXTT4=
EXTT5=
EXTT6=
EXTT7=
EXTT8=
EXTT9=
EXTT10=
EXTT11=
EXTT12=
EXTT13=
EXTT14=
EXTT15=
EXTT16=
EXTT17=
EXTT18=
EXTT19=
EXTT20=
EXTT21=
PLAYORDER=
